<?xml version="1.0" standalone="no"?>
<!DOCTYPE svg PUBLIC "-//W3C//DTD SVG 20010904//EN"
 "http://www.w3.org/TR/2001/REC-SVG-20010904/DTD/svg10.dtd">
<svg version="1.0" xmlns="http://www.w3.org/2000/svg"
 width="260.000000pt" height="260.000000pt" viewBox="0 0 260.000000 260.000000"
 preserveAspectRatio="xMidYMid meet">
<metadata>
Created by potrace 1.11, written by Peter Selinger 2001-2013
</metadata>
<g transform="translate(0.000000,260.000000) scale(0.100000,-0.100000)"
fill="#000000" stroke="none">
<path d="M328 2360 c-50 -26 -98 -81 -98 -112 0 -10 -3 -18 -7 -18 -5 0 -8
-452 -8 -1005 0 -553 2 -1005 5 -1005 3 0 102 97 220 215 l215 215 786 0 c673
0 791 2 820 15 48 21 62 34 94 89 l28 48 1 702 c1 533 -2 710 -11 739 -19 58
-48 93 -100 118 l-46 22 -926 1 -925 1 -48 -25z m1188 -576 c-1 -91 2 -170 5
-176 4 -6 14 -2 25 9 11 11 48 42 84 69 36 27 74 57 85 66 11 10 61 50 110 89
50 40 98 79 108 87 16 14 17 -6 17 -414 -1 -339 -3 -426 -13 -414 -7 8 -30 28
-52 45 -22 16 -111 87 -197 157 -86 70 -161 128 -165 128 -4 0 -8 -78 -8 -172
l0 -173 -432 -1 -433 -1 0 434 0 433 433 0 434 0 -1 -166z"/>
</g>
</svg>
